<?xml version="1.0" encoding="utf-8"?>
<!-- Generator: Adobe Illustrator 25.2.1, SVG Export Plug-In . SVG Version: 6.00 Build 0)  -->
<svg version="1.1" id="Capa_1" xmlns="http://www.w3.org/2000/svg" xmlns:xlink="http://www.w3.org/1999/xlink" x="0px" y="0px"
	 viewBox="0 0 512 512" style="enable-background:new 0 0 512 512;" xml:space="preserve">
<path d="M384,128C384,57.3,326.7,0,256,0S128,57.3,128,128H0v320c0,35.3,28.7,64,64,64h234.7v-42.7H64c-11.8,0-21.3-9.6-21.3-21.3
	V170.7H128v42.7h42.7v-42.7h170.7v42.7H384v-42.7h85.3v128H512V128H384z M170.7,128c0-47.1,38.2-85.3,85.3-85.3s85.3,38.2,85.3,85.3
	H170.7z"/>
<polygon points="448,341.3 405.3,341.3 405.3,405.3 341.3,405.3 341.3,448 405.3,448 405.3,512 448,512 448,448 512,448 512,405.3 
	448,405.3 "/>
</svg>
